name Walk4.mot
datacolumns 19
datarows 22
range 2.75500000 2.77600000
endheader

                time	   L_ground_force_vx	   L_ground_force_vy	   L_ground_force_vz	   L_ground_force_px	   L_ground_force_py	   L_ground_force_pz	   R_ground_force_vx	   R_ground_force_vy	   R_ground_force_vz	   R_ground_force_px	   R_ground_force_py	   R_ground_force_pz	   L_ground_torque_x	   L_ground_torque_y	   L_ground_torque_z	   R_ground_torque_x	   R_ground_torque_y	   R_ground_torque_z	
          2.75500000	          0.00000000	          0.00000000	          0.00000000	          0.00000000	          0.00000000	          0.00000000	          0.00000000	          0.00000000	          0.00000000	          0.00000000	          0.00000000	          0.00000000	          0.00000000	          0.00000000	          0.00000000	          0.00000000	          0.00000000	          0.00000000	
          2.75600000	          0.00000000	          0.00000000	          0.00000000	          0.00000000	          0.00000000	          0.00000000	          0.00000000	          0.00000000	          0.00000000	          0.00000000	          0.00000000	          0.00000000	          0.00000000	          0.00000000	          0.00000000	          0.00000000	          0.00000000	          0.00000000	
          2.75700000	          0.00000000	          0.00000000	          0.00000000	          0.00000000	          0.00000000	          0.00000000	          0.00000000	          0.00000000	          0.00000000	          0.00000000	          0.00000000	          0.00000000	          0.00000000	          0.00000000	          0.00000000	          0.00000000	          0.00000000	          0.00000000	
          2.75800000	          0.00000000	          0.00000000	          0.00000000	          0.00000000	          0.00000000	          0.00000000	          0.00000000	          0.00000000	          0.00000000	          0.00000000	          0.00000000	          0.00000000	          0.00000000	          0.00000000	          0.00000000	          0.00000000	          0.00000000	          0.00000000	
          2.75900000	          0.00000000	          0.00000000	          0.00000000	          0.00000000	          0.00000000	          0.00000000	          0.00000000	          0.00000000	          0.00000000	          0.00000000	          0.00000000	          0.00000000	          0.00000000	          0.00000000	          0.00000000	          0.00000000	          0.00000000	          0.00000000	
          2.76000000	          0.00000000	          0.00000000	          0.00000000	          0.00000000	          0.00000000	          0.00000000	          0.00000000	          0.00000000	          0.00000000	          0.00000000	          0.00000000	          0.00000000	          0.00000000	          0.00000000	          0.00000000	          0.00000000	          0.00000000	          0.00000000	
          2.76100000	          0.00000000	          0.00000000	          0.00000000	          0.00000000	          0.00000000	          0.00000000	          0.00000000	          0.00000000	          0.00000000	          0.00000000	          0.00000000	          0.00000000	          0.00000000	          0.00000000	          0.00000000	          0.00000000	          0.00000000	          0.00000000	
          2.76200000	          0.00000000	          0.00000000	          0.00000000	          0.00000000	          0.00000000	          0.00000000	         -3.54500737	         14.02897076	         -3.17969598	         -0.45480923	          0.00000000	         -0.08049810	          0.00000000	          0.00000000	          0.00000000	          0.00000000	          0.01426051	          0.00000000	
          2.76300000	          0.00000000	          0.00000000	          0.00000000	          0.00000000	          0.00000000	          0.00000000	         -4.67926740	         23.55452805	         -4.57261904	         -0.45689178	          0.00000000	         -0.08439181	          0.00000000	          0.00000000	          0.00000000	          0.00000000	          0.00245098	          0.00000000	
          2.76400000	          0.00000000	          0.00000000	          0.00000000	          0.00000000	          0.00000000	          0.00000000	         -5.51677937	         35.41347943	         -5.95998817	         -0.45804490	          0.00000000	         -0.08695277	          0.00000000	          0.00000000	          0.00000000	          0.00000000	         -0.01415841	          0.00000000	
          2.76500000	          0.00000000	          0.00000000	          0.00000000	          0.00000000	          0.00000000	          0.00000000	         -6.01560476	         49.70576030	         -7.33961964	         -0.45849233	          0.00000000	         -0.08837684	          0.00000000	          0.00000000	          0.00000000	          0.00000000	         -0.03067927	          0.00000000	
          2.76600000	          0.00000000	          0.00000000	          0.00000000	          0.00000000	          0.00000000	          0.00000000	         -6.16779031	         66.39121144	         -8.73801192	         -0.45850686	          0.00000000	         -0.08900465	          0.00000000	          0.00000000	          0.00000000	          0.00000000	         -0.04331238	          0.00000000	
          2.76700000	          0.00000000	          0.00000000	          0.00000000	          0.00000000	          0.00000000	          0.00000000	         -5.93113521	         85.03655677	        -10.13512789	         -0.45830108	          0.00000000	         -0.08921270	          0.00000000	          0.00000000	          0.00000000	          0.00000000	         -0.05188967	          0.00000000	
          2.76800000	          0.00000000	          0.00000000	          0.00000000	          0.00000000	          0.00000000	          0.00000000	         -5.22647336	        104.75450613	        -11.44558821	         -0.45799942	          0.00000000	         -0.08921439	          0.00000000	          0.00000000	          0.00000000	          0.00000000	         -0.05850003	          0.00000000	
          2.76900000	          0.00000000	          0.00000000	          0.00000000	          0.00000000	          0.00000000	          0.00000000	         -3.97324459	        124.34182119	        -12.55474009	         -0.45770314	          0.00000000	         -0.08911955	          0.00000000	          0.00000000	          0.00000000	          0.00000000	         -0.06458552	          0.00000000	
          2.77000000	          0.00000000	          0.00000000	          0.00000000	          0.00000000	          0.00000000	          0.00000000	         -2.15423290	        142.57938932	        -13.38111233	         -0.45749761	          0.00000000	         -0.08902174	          0.00000000	          0.00000000	          0.00000000	          0.00000000	         -0.06867168	          0.00000000	
          2.77100000	          0.00000000	          0.00000000	          0.00000000	          0.00000000	          0.00000000	          0.00000000	          0.13416497	        158.55499337	        -13.91628031	         -0.45740038	          0.00000000	         -0.08898111	          0.00000000	          0.00000000	          0.00000000	          0.00000000	         -0.06692096	          0.00000000	
          2.77200000	          0.00000000	          0.00000000	          0.00000000	          0.00000000	          0.00000000	          0.00000000	          2.69604571	        171.84324775	        -14.22787713	         -0.45734408	          0.00000000	         -0.08899919	          0.00000000	          0.00000000	          0.00000000	          0.00000000	         -0.05617479	          0.00000000	
          2.77300000	          0.00000000	          0.00000000	          0.00000000	          0.00000000	          0.00000000	          0.00000000	          5.30258294	        182.46026227	        -14.43639011	         -0.45723824	          0.00000000	         -0.08900603	          0.00000000	          0.00000000	          0.00000000	          0.00000000	         -0.03627593	          0.00000000	
          2.77400000	          0.00000000	          0.00000000	          0.00000000	          0.00000000	          0.00000000	          0.00000000	          7.75408306	        190.65898299	        -14.66797074	         -0.45704841	          0.00000000	         -0.08890064	          0.00000000	          0.00000000	          0.00000000	          0.00000000	         -0.01148205	          0.00000000	
          2.77500000	          0.00000000	          0.00000000	          0.00000000	          0.00000000	          0.00000000	          0.00000000	          9.90711530	        196.72769532	        -15.00608751	         -0.45681833	          0.00000000	         -0.08866458	          0.00000000	          0.00000000	          0.00000000	          0.00000000	          0.01080461	          0.00000000	
          2.77600000	          0.00000000	          0.00000000	          0.00000000	          0.00000000	          0.00000000	          0.00000000	         11.67506124	        200.91996826	        -15.47337366	         -0.45662073	          0.00000000	         -0.08838117	          0.00000000	          0.00000000	          0.00000000	          0.00000000	          0.02352475	          0.00000000	
